<?xml version="1.0" encoding="UTF-8" standalone="no"?>
<svg
   xmlns:dc="http://purl.org/dc/elements/1.1/"
   xmlns:cc="http://creativecommons.org/ns#"
   xmlns:rdf="http://www.w3.org/1999/02/22-rdf-syntax-ns#"
   xmlns:svg="http://www.w3.org/2000/svg"
   xmlns="http://www.w3.org/2000/svg"
   xmlns:sodipodi="http://sodipodi.sourceforge.net/DTD/sodipodi-0.dtd"
   xmlns:inkscape="http://www.inkscape.org/namespaces/inkscape"
   id="svg"
   version="1.1"
   width="400"
   height="400"
   viewBox="0 0 400 400"
   sodipodi:docname="logo.svg"
   inkscape:version="0.92.3 (2405546, 2018-03-11)">
  <metadata
     id="metadata9">
    <rdf:RDF>
      <cc:Work
         rdf:about="">
        <dc:format>image/svg+xml</dc:format>
        <dc:type
           rdf:resource="http://purl.org/dc/dcmitype/StillImage" />
        <dc:title />
      </cc:Work>
    </rdf:RDF>
  </metadata>
  <defs
     id="defs7">
    <clipPath
       clipPathUnits="userSpaceOnUse"
       id="clipPath22">
      <rect
         style="opacity:1;vector-effect:none;fill:#000000;fill-opacity:1;fill-rule:evenodd;stroke:#22181c;stroke-width:0.99999994;stroke-linecap:butt;stroke-linejoin:miter;stroke-miterlimit:4;stroke-dasharray:none;stroke-dashoffset:0;stroke-opacity:1"
         id="rect24"
         width="506.77966"
         height="364.40677"
         x="-27.118645"
         y="-45.762711" />
    </clipPath>
  </defs>
  <sodipodi:namedview
     pagecolor="#ffffff"
     bordercolor="#666666"
     borderopacity="1"
     objecttolerance="10"
     gridtolerance="10"
     guidetolerance="10"
     inkscape:pageopacity="0"
     inkscape:pageshadow="2"
     inkscape:window-width="1280"
     inkscape:window-height="971"
     id="namedview5"
     showgrid="false"
     inkscape:zoom="0.59"
     inkscape:cx="-40.677969"
     inkscape:cy="200"
     inkscape:window-x="0"
     inkscape:window-y="25"
     inkscape:window-maximized="1"
     inkscape:current-layer="svg" />
  <path
     style="fill:#000000;fill-rule:evenodd;stroke:none"
     inkscape:connector-curvature="0"
     d="m 191.22459,26.982084 c -26.974,0.783 -48.811,7.7 -66.66701,21.117 -24.438,18.363 -37.406004,48.749999 -34.409004,80.628006 0.247,2.622 0.531,3.243 1.762,3.845 1.582,0.774 1.984,0.349 2.706,-2.854 5.439004,-24.11601 23.239004,-33.403007 56.358014,-29.40501 10.006,1.208 23.582,4.059 45.042,9.46001 4.249,1.07 4.481,1.522 1.391,2.714 -17.544,6.77 -26.646,20.227 -31.838,47.068 -2.845,14.713 -3.634,18.239 -4.201,18.771 l -0.422,0.396 -6.944,-0.084 c -3.82,-0.046 -13.132,-0.083 -20.695,-0.083 h -13.75001 l -1.916,0.647 c -5.051,1.704 -8.249,3.593 -7.445,4.396 0.253,0.254 0.496,0.253 3.317,-0.013 13.558,-1.275 44.43601,-2.351 46.36901,-1.617 1.052,0.4 1.076,0.193 -0.996,8.587 -10.681,43.29199 -22.211,57.35799 -48.82901,59.56999 -33.003004,2.743 -55.068004,-10.049 -57.760004,-33.486 -0.716,-6.237 0.711,-9.33899 6.592,-14.33199 1.598,-1.358 1.918,-1.832 1.918,-2.844 0,-3.317 -3.018,-2.854 -9.583,1.469 -31.361,20.65299 -30.665,60.29999 1.333,75.95199 12.715,6.219 30.05,8.41 50.750004,6.414 45.52901,-4.39 81.70501,-29.437 107.93201,-74.727 2.838,-4.89999 2.308,-4.72599 6.652,-2.18199 16.419,9.61599 34.052,15.08299 54.25,16.81999 52.627,4.526 83.761,-12.208 85.838,-46.13599 1.043,-17.022 -9.779,-34.745 -26.121,-42.782 -4.557,-2.241 -4.574,-2.329 -0.531,-2.832 19.18,-2.386 32.184,-14.61 33.514,-31.505007 1.273,-16.151999 -10.003,-29.658999 -29.45,-35.277999 -1.284,-0.371 -2.763,-0.795 -3.288,-0.943 -1.796,-0.505 -1.707,-0.875 0.683,-2.859 5.708,-4.738 7.97,-9.738 5.07,-11.209 -3.223,-1.634 -33.161,-9.36 -51.049,-13.173 -34.173,-7.286 -65.344,-10.387 -95.583,-9.51 m 0.833,16.324 c 28.064,0.909 54.914,4.404 84.584,11.012 14.785,3.293 15.23,3.51 10.25,4.991 -20.415,6.07 -37.87,20.872 -52.818,44.788996 -1.712,2.74 0.684,3.046 -23.182,-2.963 -36.101,-9.088997 -47.619,-11.275997 -61.917,-11.752997 -24.06101,-0.803 -43.43501,8.901 -52.752014,26.423007 -2.255,4.242 -2.805,3.445 -2.243,-3.25 3.238,-38.584006 32.403004,-65.564006 74.578014,-68.993006 5.396,-0.439 14.714,-0.54 23.5,-0.256 m 108.132,24.491 c 3.425,0.234 3.422,0.272 -0.257,3.914 -10.613,10.506 -17.885,22.256999 -24.09,38.927006 -2.174,5.839 -3.03,8.623 -6.847,22.25 -12.065,43.069 -16.814,53.355 -26.938,58.338 -5.854,2.881 -13.908,3.703 -19.249,1.962 -2.812,-0.916 -2.845,-1.137 -0.83,-5.576 5.689,-12.538 8.038,-18.872 16.151,-43.557 9.745,-29.649 19.79,-49.980007 31.293,-63.333006 3.377,-3.92 9.133,-9.326 11.275,-10.59 2.541,-1.499 13.145,-2.77 19.492,-2.335 m 15.264,1.767 c 12.506,2.527 20.863,7.168 26.836,14.905 10.204,13.216999 7.649,31.408006 -5.655,40.265006 -6.472,4.309 -13.344,5.187 -20.658,2.64 -3.383,-1.178 -7.595,0.397 -12.385,4.632 -2.979,2.634 -2.836,3.521 0.748,4.634 23.439,7.285 35.429,19.508 37.409,38.137 2.636,24.802 -14.387,43.21399 -41.932,45.35399 -22.093,1.716 -47.41,-5.29 -67.794,-18.76099 -4.171,-2.756 -4.279,-3.197 -0.873,-3.56 7.962,-0.85 14.723,-2.929 19.408,-5.969 13.59,-8.818 24.447,-29.874 34.913,-67.713 2.433,-8.794 3.183,-11.347 4.5,-15.323 5.205,-15.704007 11.645,-27.912006 19.594,-37.144006 2.414,-2.803 2.407,-2.801 5.889,-2.097 m -103.229,44.418006 c 2.108,0.532 5.895,1.425 8.414,1.985 6.337,1.408 6.058,0.964 3.688,5.854 -6.135,12.658 -9.545,21.418 -16.732,42.984 -4.695,14.087 -5.036,15.014 -5.646,15.359 -0.512,0.29 -0.948,0.276 -19.296,-0.607 -6.741,-0.325 -6.582,-0.234 -5.695,-3.278 0.887,-3.045 1.441,-5.546 4.848,-21.891 5.723,-27.452 10.987,-36.906 22.738,-40.835 2.668,-0.892 2.382,-0.908 7.681,0.429 m -23.675,68.243 c 12.896,0.279 12.425,0.23 12.425,1.316 0,0.562 -2.442,7.213 -5.114,13.925 -21.164,53.16899 -41.902,71.17699 -83.89001,72.84899 -25.774004,1.027 -45.695005,-5.45 -55.827004,-18.151 -2.438,-3.056 -1.819,-3.462 1.971,-1.292 9.478999,5.427 20.304,7.599 34.722,6.965 42.220014,-1.855 66.705014,-23.796 81.789014,-73.29199 0.595,-1.953 0.985,-2.428 2.099,-2.553 0.092,-0.011 5.413,0.094 11.825,0.233 m 35.64,150.07999 c -1.773,0.465 -3.369,1.183 -4.921,2.216 -2.55,1.697 -2.576,2.085 -0.086,1.305 6.22088,-2.61421 9.6823,2.73243 10.532,0.349 1.09,-3.2 -1.407,-4.949 -5.525,-3.87 m -51.465,0.758 c -2.081,0.571 -5.185,2.565 -7.375,4.739 -1.358,1.347 -1.315,1.518 0.167,0.671 4.553,-2.602 7.258,-3.101 9.074,-1.672 0.858,0.675 1.584,0.092 1.817,-1.461 0.312,-2.08 -1.136,-2.975 -3.683,-2.277 m 87.917,5.83 c -0.413,0.122 -1.849,0.302 -3.191,0.399 -3.927,0.284 -6.711,1.346 -3.527,1.346 2.826,0 2.849,0.391 0.174,3.051 -3.716,3.697 -5.504,6.452 -9.534,14.69 -3.988,8.152 -5.327,10.478 -7.45,12.944 -1.414,1.643 -0.849,1.756 1.26,0.251 3.31,-2.362 6.379,-6.95 11.162,-16.686 3.818,-7.773 7.79,-13.29 9.845,-13.675 2.163,-0.406 5.842,1.771 7.009,4.147 1.737,3.536 0.476,7.058 -3.748,10.467 -0.92,0.742 -0.786,0.939 0.463,0.681 3.625,-0.749 7.111,-4.164 7.968,-7.805 0.943,-4.012 -1.273,-7.132 -6.144,-8.651 -0.803,-0.25 -1.731,-0.67 -2.063,-0.934 -0.661,-0.525 -1.073,-0.567 -2.224,-0.225 m -157.25001,0.346 c -3.326,0.334 -7.584004,1.685 -7.584004,2.406 0,0.206 135.834014,32.956 1.834,-0.12 4.378004,-0.772 14.188004,0.039 15.780004,1.304 0.462,0.367 0.741,0.475 1.05,0.406 1.194,-0.27 2.745,-0.28 4.643,-0.032 2.758,0.36 3.598,0.345 4.483,-0.084 1.649,-0.798 1.462,-1.666 -0.408,-1.889 -0.531,-0.064 -2.99,-0.405 -5.465,-0.76 -7.432,-1.063 -12.053,-1.461 -14.333,-1.231 m 77.33301,0.17 c -3.87,0.582 -7.519,2.058 -9.307,3.767 -0.99,0.946 -0.88,0.945 1.4,-0.004 4.949,-2.059 11.966,-2.149 21.299,-0.272 2.396,0.482 2.985,0.742 3.223,1.423 l 0.173,0.498 1.773,-0.112 c 1.399,-0.087 1.963,-0.054 2.678,0.159 2.042,0.609 4.767,-0.785 3.744,-1.915 -0.62,-0.685 -8.12,-2.544 -13.066,-3.239 -1.848,-0.259 -10.71,-0.486 -11.917,-0.305 m -69.59301,5.373 c -2.967,1.484 -5.348,4.479 -8.475,10.658 -1.527,3.019 -1.98,3.775 -2.522,4.203 -0.591004,0.469 -0.660004,0.6 -0.660004,1.264 0,1.4 -3.375,7.252 -6.826,11.835 -1.449,1.925 -1.5,2.244 -0.221,1.384 2.25,-1.514 6.571,-6.636 9.236004,-10.949 0.665,-1.076 1.569,-2.345 2.01,-2.82 0.636,-0.687 0.801,-0.984 0.801,-1.442 0,-1.236 4.933,-10.562 6.939,-13.12 1.035,-1.32 0.949,-1.629 -0.282,-1.013 m 83.23301,1.348 c -4.105,2.055 -8.143,6.91 -12.561,15.103 -4.122,7.644 -6.335,10.926 -9.528,14.127 -1.63,1.635 -1.659,1.676 -1.009,1.43 3.896,-1.477 10.11,-8.436 14.125,-15.818 2.697,-4.959 3.189,-5.833 4.114,-7.307 1.596,-2.543 2.898,-4.162 5.013,-6.235 2.27,-2.226 2.238,-2.497 -0.154,-1.3 m 9.919,3.132 c -4.108,4.329 -11.368,16.081 -16.683,27.001 -1.86,3.823 -1.953,4.258 -0.928,4.343 1.164,0.097 2.058,-0.614 3.079,-2.448 0.337,-0.607 1.264,-2.078 2.059,-3.27 1.926,-2.885 1.997,-3.038 1.997,-4.291 0,-1.694 3.7,-8.939 9.877,-19.342 1.845,-3.106 1.932,-3.398 0.599,-1.993 m -55.499,7.992 c -6.064,8.087 -11.918,20.209 -10.917,22.604 0.51,1.22 2.448,1.223 4.065,0.005 0.686,-0.517 0.679,-0.659 -0.064,-1.339 -1.526,-1.398 0.985,-8.948 6.293,-18.928 2.071,-3.894 2.228,-4.484 0.623,-2.342 m 106.411,-0.554 c -1.85,0.882 -1.754,1.451 0.413,2.452 8.397,3.88 7.916,13.978 -0.921,19.339 -1.748,1.06 -1.861,1.232 -0.707,1.079 3.747,-0.497 8.338,-3.953 10.205,-7.682 2.344,-4.683 1.723,-9.197 -1.733,-12.604 -1.096,-1.081 -1.478,-1.568 -1.478,-1.885 0,-0.235 -0.019,-0.432 -0.042,-0.437 -0.173,-0.042 -3.529,-0.52 -4.125,-0.588 -0.576,-0.065 -0.949,0.011 -1.612,0.326 m 83.446,0.457 c -1.227,0.484 -2.149,1.472 -4.497,4.815 -1.63,2.322 -1.934,2.641 -2.946,3.096 -1.021,0.458 -1.124,0.586 -0.807,1.004 0.454,0.6 0.278,1.234 -0.984,3.551 -4.17,7.656 -4.602,10.7 -1.595,11.244 1.826,0.329 4.24,-1.166 2.75,-1.704 -1.958,-0.708 -1.667,-2.844 1.153,-8.441 1.809,-3.591 2.389,-4.492 3.358,-5.214 0.637,-0.475 0.735,-0.629 0.736,-1.167 0.002,-0.768 0.514,-1.678 2.392,-4.25 1.783,-2.442 1.854,-2.571 1.597,-2.88 -0.227,-0.274 -0.561,-0.289 -1.157,-0.054 m -220.79101,7.644 c -1.096,0.26 -1.359,0.833 -0.539,1.172 1.444,0.598 1.761,2.157 0.746,3.665 -0.908,1.351 -0.5,1.561 1.34,0.69 4.104,-1.941 2.81,-6.562 -1.547,-5.527 m 15.44801,-0.005 c -1.299,0.394 -1.424,0.699 -0.484,1.179 1.457,0.743 1.689,2.004 0.677,3.675 l -0.65,1.072 0.486,0.052 c 1.18,0.127 3.413,-1.429 3.907,-2.722 0.817,-2.139 -1.447,-4.011 -3.936,-3.256 m 69.963,0.156 c -1.789,0.467 -2.516,1.149 -1.62,1.52 1.129,0.467 1.073,0.985 -0.354,3.255 -4.642,7.385 -4.9,12.737 -0.519,10.748 0.921,-0.418 0.994,-0.661 0.445,-1.49 -0.984,-1.487 0.311,-5.088 3.568,-9.922 2.745,-4.076 2.358,-5.122 -1.52,-4.111 m 15.116,-0.134 c -1.111,0.322 -1.195,0.731 -0.256,1.242 1.558,0.848 1.725,2.074 0.516,3.789 -1.254,1.777 1.385,1.239 3.231,-0.659 2.289,-2.355 -0.106,-5.355 -3.491,-4.372 m 58.639,0.149 c -0.876,0.398 -0.887,0.574 -0.058,0.997 1.663,0.848 1.78,3.437 0.199,4.414 -0.363,0.224 -0.191,0.594 0.275,0.594 1.246,-0.001 3.541,-1.579 4.085,-2.809 1.044,-2.361 -1.836,-4.406 -4.501,-3.196 m 19.875,-0.211 c -0.624,0.153 -0.611,0.341 0.058,0.82 1.802,1.292 1.569,2.079 -1.887,6.38 -2.021,2.516 -1.92,2.24 -1.965,5.344 l -0.04,2.699 0.468,0.403 c 0.607,0.523 1.435,0.522 2.561,-0.001 1.083,-0.505 1.378,-0.968 0.879,-1.385 -0.59,-0.495 -0.866,-1.186 -0.741,-1.856 0.472,-2.524 2.869,-7.006 5.657,-10.578 1.168,-1.496 0.996,-1.793 -0.824,-1.431 -0.937,0.186 -1.2,0.179 -1.958,-0.052 -1.122,-0.342 -1.79,-0.446 -2.208,-0.343 m 14.583,0.518 c -2.355,1.013 -3.82,2.399 -3.832,3.623 -10e-4,0.096 -0.498,1.034 -1.105,2.083 -2.492,4.307 -3.514,7.487 -2.864,8.913 0.569,1.248 2.823,1.202 4.646,-0.097 0.641,-0.456 0.617,-0.766 -0.082,-1.058 -2.248,-0.939 -0.473,-6.195 4.053,-12.005 1.474,-1.892 1.225,-2.337 -0.816,-1.459 m 10.417,-0.196 c -1.573,0.845 -6.08,7.146 -6.087,8.512 -0.002,0.347 -0.115,1.119 -0.251,1.715 -1.011,4.426 -0.754,5.505 1.305,5.496 1.908,-0.008 2.791,-0.813 1.945,-1.776 -1.263,-1.439 0.369,-6.469 3.746,-11.549 1.455,-2.188 1.528,-2.567 0.508,-2.627 -0.368,-0.022 -0.89,0.081 -1.166,0.229 m 34.447,-0.024 c -1.032,0.456 -1.541,0.946 -2.569,2.475 -0.564,0.839 -1.578,2.269 -2.254,3.176 -1.608,2.162 -2.041,3.031 -2.041,4.097 0,1.705 -4.983,10.278 -8.911,15.332 -1.675,2.156 -1.775,2.507 -0.501,1.76 3.814,-2.235 9.463,-10.421 17.218,-24.951 1.011,-1.894 0.661,-2.596 -0.942,-1.889 m -11.673,0.926 c -1.654,0.827 -2.244,1.398 -2.621,2.531 -0.159,0.481 -0.664,1.508 -1.121,2.282 -4.348,7.361 -4.132,11.762 0.473,9.618 1.536,-0.715 1.714,-1.086 0.735,-1.527 -2.164,-0.976 -0.688,-5.199 4.331,-12.396 0.979,-1.402 0.346,-1.581 -1.797,-0.508 m -274.241015,1.671 c -3.605,2.388 -4.603999,8.669 -1.784,11.217 2.334,2.109 8.304001,2.618 12.863001,1.097 2.027,-0.676 1.829,-0.771 -1.808,-0.872 -8.411001,-0.234 -11.523001,-4.013 -8.624001,-10.476 0.785,-1.75 0.709,-1.864 -0.647,-0.966 m 217.640015,0.667 c -6.225,3.947 -7.968,14.384 -2.03,12.15 1.504,-0.566 2.497,-1.663 1.505,-1.663 -2.59,0 -2.101,-4.572 1.029,-9.606 1.016,-1.635 0.928,-1.789 -0.504,-0.881 m -16.553,0.41 c -3.092,2.648 -5.513,8.541 -4.412,10.743 0.807,1.612 4.188,1.902 6.51,0.558 0.952,-0.552 0.819,-0.784 -0.527,-0.919 -1.229,-0.123 -1.974,-0.477 -2.507,-1.192 -0.72,-0.965 -0.286,-4.011 0.737,-5.176 0.423,-0.482 0.495,-0.7 0.495,-1.494 0,-0.538 0.141,-1.288 0.334,-1.776 0.584,-1.483 0.437,-1.657 -0.63,-0.744 m -59.312,0.449 c -3.109,2.94 -5.273,8.645 -3.95,10.416 1.16,1.554 4.942,1.638 6.808,0.151 0.454,-0.362 0.097,-0.598 -0.916,-0.607 -2.856,-0.023 -3.912,-3.718 -1.82,-6.364 0.399,-0.505 0.486,-0.774 0.486,-1.5 0,-0.487 0.15,-1.279 0.334,-1.761 0.578,-1.521 0.385,-1.59 -0.942,-0.335 m -100.54201,-0.277 c -2.141,1.802 -4.545,6.535 -4.568,8.994 -0.024,2.519 2.306,3.594 5.59,2.579 1.869,-0.577 2.07,-1.107 0.502,-1.329 -2.001,-0.283 -2.705,-1.024 -2.706,-2.85 -10e-4,-1.382 0.386,-2.729 1.013,-3.521 0.402,-0.509 0.486,-0.772 0.486,-1.521 0,-0.499 0.104,-1.159 0.23,-1.468 0.592,-1.446 0.43,-1.706 -0.547,-0.884 m 15.24,0.25 c -3.265,3.009 -5.334,8.887 -3.774,10.72 1.039,1.222 4.764,1.233 6.28301,0.019 0.605,-0.484 0.52,-0.569 -0.75401,-0.749 -1.952,-0.276 -2.776,-1.158 -2.739,-2.933 0.029,-1.367 0.463,-2.779 1.065,-3.465 0.423,-0.482 0.496,-0.7 0.496,-1.494 0,-0.538 0.141,-1.288 0.333,-1.776 0.508,-1.288 0.241,-1.383 -0.91,-0.322 m 26.03101,-0.086 c -3.41,2.501 -4.213,7.537 -1.569,9.841 2.89,2.518 10.744,2.583 15.645,0.13 0.896,-0.449 1.248,-0.835 0.62,-0.681 -10.282,2.521 -16.944,-1.596 -13.801,-8.528 0.726,-1.6 0.504,-1.789 -0.895,-0.762 m 72.807,2.838 c -2.147,0.786 -1.653,1.95 1.813,4.268 2.605,1.743 5.354,2.983 8.209,3.704 3.876,0.979 9.224,1.07 5.847,0.099 -5.74,-1.649 -9.963,-3.926 -9.963,-5.372 0,-0.713 -0.152,-0.846 -1.344,-1.188 -0.51,-0.146 -1.253,-0.501 -1.65,-0.789 -1.351,-0.979 -1.864,-1.106 -2.912,-0.722 m 98.106,15.515 c -1.382,0.681 -2.61,2.823 -2.611,4.555 -0.003,2.946 3.142,5.143 6.801,4.751 2.082,-0.224 2.183,-0.452 0.401,-0.907 -3.714,-0.95 -5.084,-3.411 -3.946,-7.093 0.481,-1.557 0.36,-1.802 -0.645,-1.306"
     id="path0"
     sodipodi:nodetypes="ccccccccccccscccccccccscccccccccccccccccccccccccccccccccccccccccccccccccccccccccccccccscccccccccccccccccccccsccccccccccccccsccccccccccccccccccccccsccccscccccccccccccccsccccccccccccccscccccccsccccccccccccccccccccccccccccccccccccccccccccccccccccccccccccccccccccccscccccccccccccccccccsccccccccscccccccsccccccccsccccccccsccccccccccccsccccccccc"
     clip-path="url(#clipPath22)"
     transform="matrix(1.1308373,0,0,1.2846091,-20.629,-21.197477)" />
  <path
     style="fill:#05204a;fill-opacity:1;stroke:#05204a;stroke-width:1.69491529;stroke-opacity:1"
     d="m 54.956342,339.65578 c -18.911276,-5.08192 -34.638028,-18.81422 -39.985796,-34.91485 -4.541461,-13.67305 -2.796724,-31.75091 4.360326,-45.17891 6.110166,-11.46385 20.554174,-25.66371 26.104952,-25.66371 3.203437,0 3.198591,0.10101 -0.182816,3.81355 -5.34584,5.86924 -7.28691,10.61263 -7.28691,17.80699 0,17.782 11.871183,34.16769 29.818899,41.15876 14.35573,5.59192 40.230323,5.69173 52.363373,0.202 14.18364,-6.41753 21.49191,-15.34417 29.09097,-35.533 4.07067,-10.81478 12.44898,-42.85571 12.45338,-47.6251 0.002,-1.98743 -4.51352,-2.21222 -27.36426,-1.36236 -21.23541,0.78978 -26.91328,0.5636 -25.34369,-1.00966 1.34182,-1.34493 10.74131,-2.20883 27.92128,-2.56624 l 25.89851,-0.53878 4.58052,-23.19003 c 6.75562,-34.20203 14.96293,-49.7458 30.66468,-58.07555 4.24212,-2.25044 7.71295,-4.60591 7.71295,-5.23437 0,-2.55356 -38.85666,-12.52981 -58.05484,-14.90529 -34.48794,-4.26734 -56.322784,8.52557 -61.481029,36.02139 -2.029705,10.81925 -4.193431,5.03304 -4.181072,-11.18099 0.03495,-45.845874 23.390491,-86.334125 60.276581,-104.493083 36.63229,-18.034016 94.19029,-17.4823034 169.37256,1.623492 34.53131,8.775315 49.03749,13.785415 49.65702,17.15039 0.27747,1.507049 -1.43863,5.049356 -3.81356,7.87179 -2.37492,2.822435 -4.31803,5.505047 -4.31803,5.961362 0,0.456314 4.07547,2.483775 9.05661,4.50547 10.37208,4.209722 21.77093,14.98403 25.60891,24.205832 3.12914,7.518566 3.39827,21.224787 0.60015,30.564087 -1.11235,3.71271 -5.11757,10.16903 -8.90047,14.34737 -5.45278,6.02279 -9.28883,8.37814 -18.51253,11.36678 l -11.63454,3.76979 8.63392,6.20285 c 11.00722,7.9079 19.65606,20.97322 23.42325,35.38419 6.90907,26.4299 -5.95983,54.35702 -30.50615,66.20208 -13.62661,6.57566 -25.68519,8.83107 -46.9217,8.77614 -29.16444,-0.0754 -57.98901,-8.03232 -76.28013,-21.05675 -6.0271,-4.29167 -7.40863,-3.64847 -12.09219,5.62985 -18.53588,36.72039 -51.18133,69.60987 -81.64262,82.25288 -24.09221,9.99953 -58.205781,13.32548 -79.096508,7.71163 z m 77.498128,-17.3521 c 22.38253,-6.97931 37.51266,-21.31407 51.90114,-49.17282 8.44881,-16.35845 21.17678,-48.8374 22.00513,-56.1522 0.26577,-2.34674 1.29497,-5.79222 2.28714,-7.65663 0.99217,-1.8644 5.01661,-14.06779 8.9432,-27.11864 3.92659,-13.05085 9.66295,-29.98838 12.74746,-37.63895 6.42771,-15.94273 6.39113,-16.03105 -7.94997,-19.19927 -21.66403,-4.78598 -28.95752,5.57048 -38.74025,55.00961 -2.75234,13.90953 -5.00426,26.26875 -5.00426,27.46493 0,1.49656 3.56831,2.35983 11.44068,2.76783 l 11.44068,0.59293 -12.08837,0.33197 -12.08838,0.33197 -4.59539,14.83051 c -9.53438,30.76993 -25.26381,56.05979 -42.00886,67.5421 -22.87855,15.68813 -59.02922,19.39517 -80.927225,8.29861 -10.9971,-5.57265 -11.345342,-2.23599 -0.782788,7.50025 8.643544,7.96734 19.234893,13.05192 31.988803,15.35685 12.801914,2.31359 39.18729,0.72885 51.43126,-3.08905 z m 205.85151,-65.35732 c 10.82844,-5.12268 18.80875,-13.30478 24.04875,-24.65685 5.22562,-11.32095 5.06079,-34.94959 -0.32575,-46.69629 -5.5048,-12.00461 -15.67112,-21.63646 -29.62634,-28.06884 l -11.95366,-5.5098 5.46186,-4.88018 c 4.67365,-4.1759 6.36568,-4.71945 11.72467,-3.76646 3.44454,0.61254 6.64415,1.11091 7.11025,1.1075 8.06873,-0.0592 11.08978,-1.24689 17.20337,-6.76358 3.874,-3.49576 8.07112,-8.81024 9.32692,-11.80996 2.95722,-7.06389 2.93129,-24.45984 -0.0471,-31.58808 -5.55048,-13.284134 -23.36637,-26.460274 -35.83241,-26.500652 -4.28183,-0.0139 -6.02574,1.379335 -10.73957,8.579783 -8.16916,12.478624 -14.88997,29.814509 -21.63667,55.810439 -16.98886,65.46053 -30.67864,91.11885 -51.99272,97.44846 -4.72558,1.40335 -9.66117,2.55154 -10.96795,2.55154 -4.36851,0 -1.12282,4.17802 8.181,10.53103 27.69171,18.909 67.01888,25.11466 90.06537,14.21194 z m -87.99731,-30.45673 c 12.07933,-5.14694 18.10985,-16.91714 28.33492,-55.30319 3.84888,-14.44915 8.86261,-33.13559 11.14164,-41.52542 5.05917,-18.62451 16.77899,-42.873508 26.15465,-54.115588 8.35037,-10.012666 6.977,-11.789971 -7.77105,-10.056629 -11.94065,1.403389 -18.31507,6.527797 -29.60602,23.800324 -9.73263,14.888633 -18.08529,34.524533 -27.16798,63.867953 -3.79071,12.24666 -10.71214,33.62456 -15.38094,47.50648 -6.74642,20.05939 -8.02601,25.53313 -6.23435,26.66895 3.46444,2.19627 14.45564,1.745 20.52913,-0.84288 z M 94.745759,118.83087 c 2.79661,-4.29766 8.803771,-10.29938 13.349251,-13.33716 20.93474,-13.990869 43.26607,-14.055535 93.43041,-0.27055 35.35178,9.71454 43.22034,11.2918 43.22034,8.66359 0,-0.9561 3.74276,-7.33191 8.31724,-14.168484 12.20473,-18.239964 27.37488,-32.642602 41.99047,-39.866027 6.77234,-3.34707 11.94151,-6.687229 11.48704,-7.422575 -1.06078,-1.716391 -40.85743,-10.97763 -61.79475,-14.38051 -8.85593,-1.439329 -29.59837,-3.075283 -46.09432,-3.635456 -34.75002,-1.180047 -46.87494,0.814629 -66.19787,10.890249 -26.85183,14.001438 -47.25176,48.062294 -46.930172,78.357233 0.08437,7.94838 0.409582,8.89801 2.118644,6.18664 1.110434,-1.76167 4.307107,-6.71929 7.103717,-11.01695 z"
     id="path9"
     inkscape:connector-curvature="0" />
</svg>
